# xmcd
# Track frame offsets:
# 150
# 9646
# 25177
# 36547
# 53519
# 65083
# 75010
# 88454
# 101780
# 111164
# 124826
#
# Disc length: 1860 seconds
# Revision: 0
# Processed by: cddbd v1.4PL0 Copyright (c) Steve Scherf et al.
# Submitted via: VisiTrax 2.9.5.180 - For more info visit www.synapsa.com
#
DISCID=8e07420b
DTITLE=Donny Moore - Flesh and bone
DYEAR=2000
DGENRE=
TTITLE0=Wondering if it's worth it
TTITLE1=Flesh and bone
TTITLE2=Uppercut
TTITLE3=We gotta keep going
TTITLE4=Old Nellie Belle
TTITLE5=Baby come on
TTITLE6=Power of love
TTITLE7=Jose Cuervo got him again
TTITLE8=Huh and uh-huh
TTITLE9=Old country way
TTITLE10=The end of time
EXTD=
EXTT0=
EXTT1=
EXTT2=
EXTT3=
EXTT4=
EXTT5=
EXTT6=
EXTT7=
EXTT8=
EXTT9=
EXTT10=
PLAYORDER=
